# xmcd
#
# Track frame offsets: 
#        150
#        16718
#        30332
#        45723
#        61036
#        75740
#        93254
#        105968
#        123941
#        143439
#        165837
#        184379
#        203218
#        224600
#        236148
#        254254
#        274571
#        286393
#        300287
#
# Disc length: 4198 seconds
#
# Revision: 0
# Processed by: cddbd v1.5.2PL0 Copyright (c) Steve Scherf et al.
# Submitted via: ExactAudioCopy v1.1
#
DISCID=ee106413
DTITLE=Various Artist - 1000 Klassiekers Radio 2 Vol. 10 - CD 2
DYEAR=2018
DGENRE=Easy Listening
TTITLE0=Kenny Loggins - Footloose
TTITLE1=Barbara Dex - Iemand Als Jij
TTITLE2=Mocedades - Eres Tu
TTITLE3=Albert Hammond - The Free Electric Band
TTITLE4=Hooverphonic - Amalfi
TTITLE5=Terence Trent D'Arby - Dance Little Sister
TTITLE6=Ann Christy - Dag Vreemde Man
TTITLE7=Take That - Back For Good
TTITLE8=Deniece Williams - Let's Hear It For The Boy
TTITLE9=Bob Dylan - Shelter From The Storm
TTITLE10=Michael Jackson - Bad
TTITLE11=Gabriel Rios - Gold
TTITLE12=Whitney Houston - I'm Every Woman
TTITLE13=Andy Williams - Music To Watch Girls By
TTITLE14=Frank Boeijen Groep - Kronenburg Park
TTITLE15=Daryl Hall and John Oates - Maneater
TTITLE16=The Lovin' Spoonful - Summer In The City
TTITLE17=The O'Jays - Back Stabbers
TTITLE18=Al Bano and Romina Power - Felicita
EXTD=
EXTT0=
EXTT1=
EXTT2=
EXTT3=
EXTT4=
EXTT5=
EXTT6=
EXTT7=
EXTT8=
EXTT9=
EXTT10=
EXTT11=
EXTT12=
EXTT13=
EXTT14=
EXTT15=
EXTT16=
EXTT17=
EXTT18=
PLAYORDER=
